<svg version="1.2" xmlns="http://www.w3.org/2000/svg" viewBox="0 0 1080 1080" width="540" height="540"><style>.a{fill:#fff;stroke:#fff;stroke-miterlimit:10;stroke-width:40}</style><path class="a" d="m110.2 858.8q0 5.4-13.3 15-12.9 9.1-23.3 9.1h-34q172.7-362.3 310.9-676.5 0-5.4 12.8-14.5 13.3-9.6 23.7-9.6h34q-172.6 362.3-310.8 676.5zm305.4 0q0 5.4-13.3 15-12.8 9.1-23.2 9.1h-34q172.6-362.3 310.8-676.5 0-5.4 12.9-14.5 13.3-9.6 23.7-9.6h34q-172.7 362.3-310.9 676.5zm305.5 0q0 5.4-13.3 15-12.9 9.1-23.2 9.1h-34.1q172.7-362.3 310.9-676.5 0-5.4 12.9-14.5 13.2-9.6 23.6-9.6h34.1q-172.7 362.3-310.9 676.5z"/></svg>