<?xml version="1.0" standalone="no"?>
<!DOCTYPE svg PUBLIC "-//W3C//DTD SVG 20010904//EN"
 "http://www.w3.org/TR/2001/REC-SVG-20010904/DTD/svg10.dtd">
<svg version="1.0" xmlns="http://www.w3.org/2000/svg"
 width="250.000000pt" height="250.000000pt" viewBox="0 0 250.000000 250.000000"
 preserveAspectRatio="xMidYMid meet">

<g transform="translate(0.000000,250.000000) scale(0.100000,-0.100000)"
fill="#000000" stroke="none">
<path d="M1077 2234 c-208 -37 -383 -129 -532 -279 -130 -129 -215 -277 -263
-454 -33 -127 -37 -342 -8 -466 89 -384 377 -672 761 -761 116 -27 330 -26
445 3 372 94 649 370 743 743 30 121 30 339 0 460 -87 343 -332 610 -660 719
-147 49 -333 63 -486 35z m230 -176 l23 -21 0 -434 0 -433 -350 0 c-335 0
-351 1 -370 20 -29 29 -34 63 -16 99 9 17 18 32 19 33 1 1 126 5 277 8 l275 5
3 349 c2 343 3 350 24 373 28 30 83 31 115 1z"/>
</g>
</svg>
