<?xml version="1.0" standalone="no"?>
<!DOCTYPE svg PUBLIC "-//W3C//DTD SVG 20010904//EN"
 "http://www.w3.org/TR/2001/REC-SVG-20010904/DTD/svg10.dtd">
<svg version="1.0" xmlns="http://www.w3.org/2000/svg"
 width="1192.000000pt" height="1258.000000pt" viewBox="0 0 1192.000000 1258.000000"
 preserveAspectRatio="xMidYMid meet">

<g transform="translate(0.000000,1258.000000) scale(0.100000,-0.100000)"
fill="#000000" stroke="none">
<path d="M9055 12529 c-152 -16 -111 -5 -1565 -424 -179 -52 -1625 -468 -3215
-925 -1589 -457 -2937 -845 -2995 -862 -292 -86 -518 -217 -729 -422 -305
-297 -484 -676 -522 -1106 -22 -258 1 -392 167 -975 l134 -470 0 -2765 c0
-1521 5 -2830 10 -2910 28 -460 214 -858 543 -1165 126 -118 248 -203 402
-280 195 -97 376 -151 587 -174 136 -15 8349 -15 8486 0 208 22 404 80 583
170 175 87 284 164 423 298 314 304 487 667 526 1101 8 89 10 896 8 2835 l-3
2710 -23 60 c-49 128 -153 236 -279 287 l-58 23 -3615 3 -3615 3 185 54 c102
30 1258 363 2570 740 1312 377 2531 728 2710 780 179 51 523 150 765 220 242
70 463 139 490 153 109 58 205 185 235 310 26 112 16 161 -188 872 -105 366
-203 699 -217 740 -43 119 -150 318 -226 421 -80 107 -201 233 -304 318 -347
287 -818 428 -1270 380z m738 -1168 c63 -60 135 -160 165 -232 27 -62 265
-899 258 -906 -8 -8 -1480 -432 -1485 -427 -2 1 203 381 455 843 l458 839 45
-31 c25 -17 72 -56 104 -86z m-1261 37 c-11 -18 -255 -465 -542 -993 -287
-528 -528 -965 -534 -972 -12 -12 -1685 -497 -1692 -490 -3 2 241 454 540
1003 l545 999 338 97 c186 54 563 162 838 242 275 80 506 145 513 145 10 1 8
-8 -6 -31z m-2971 -856 c-24 -48 -1072 -1966 -1076 -1970 -5 -5 -1690 -489
-1694 -486 -7 6 1084 1997 1099 2005 8 5 166 51 350 104 184 53 558 160 830
239 272 79 498 144 503 145 4 0 -1 -16 -12 -37z m-2972 -859 c-12 -21 -258
-472 -548 -1003 l-526 -965 -145 -41 c-80 -23 -146 -41 -147 -40 -7 6 -244
857 -254 912 -14 81 -7 234 15 319 55 212 223 409 429 506 34 15 276 90 537
165 261 75 509 146 550 159 111 34 115 33 89 -12z"/>
</g>
</svg>
